<svg width="61" height="61" viewBox="0 0 61 61" fill="none" xmlns="http://www.w3.org/2000/svg">
<g clip-path="url(#clip0_2372_7540)">
<g clip-path="url(#clip1_2372_7540)">
<rect width="60" height="60" transform="translate(0.5 0.147949)" fill="white"/>
<rect x="0.5" y="0.147949" width="60" height="60" fill="url(#paint0_linear_2372_7540)"/>
<path d="M34.4526 12.4812H26.214C25.33 12.4812 24.4821 12.8324 23.857 13.4575L21.0858 16.2287C20.7107 16.6038 20.202 16.8145 19.6715 16.8145H15.9666C13.3531 16.8145 12.0463 16.8145 11.048 17.3232C10.1699 17.7706 9.45601 18.4845 9.00861 19.3626C8.49997 20.3608 8.49997 21.6676 8.49997 24.2812V39.0145C8.49997 41.6281 8.49997 42.9349 9.00861 43.9332C9.45601 44.8112 10.1699 45.5252 11.048 45.9726C12.0463 46.4812 13.3531 46.4812 15.9666 46.4812H45.0333C47.6469 46.4812 48.9537 46.4812 49.9519 45.9726C50.83 45.5252 51.5439 44.8112 51.9913 43.9332C52.5 42.9349 52.5 41.6281 52.5 39.0145V24.2812C52.5 21.6676 52.5 20.3608 51.9913 19.3626C51.5439 18.4845 50.83 17.7706 49.9519 17.3232C48.9537 16.8145 47.6469 16.8145 45.0333 16.8145H40.9951C40.4646 16.8145 39.9559 16.6038 39.5808 16.2287L36.8096 13.4575C36.1845 12.8324 35.3366 12.4812 34.4526 12.4812Z" fill="url(#paint1_linear_2372_7540)"/>
<circle cx="45.5002" cy="23.4814" r="2" fill="#FCCA00"/>
<g filter="url(#filter0_d_2372_7540)">
<path fill-rule="evenodd" clip-rule="evenodd" d="M30.5 41.4813C36.0228 41.4813 40.5 37.0042 40.5 31.4813C40.5 25.9585 36.0228 21.4813 30.5 21.4813C24.9771 21.4813 20.5 25.9585 20.5 31.4813C20.5 37.0042 24.9771 41.4813 30.5 41.4813ZM30.4999 39.4812C34.9182 39.4812 38.4999 35.8995 38.4999 31.4812C38.4999 27.0629 34.9182 23.4812 30.4999 23.4812C26.0816 23.4812 22.4999 27.0629 22.4999 31.4812C22.4999 35.8995 26.0816 39.4812 30.4999 39.4812Z" fill="url(#paint2_linear_2372_7540)"/>
</g>
</g>
</g>
<defs>
<filter id="filter0_d_2372_7540" x="19.1666" y="21.4813" width="22.6667" height="22.6667" filterUnits="userSpaceOnUse" color-interpolation-filters="sRGB">
<feFlood flood-opacity="0" result="BackgroundImageFix"/>
<feColorMatrix in="SourceAlpha" type="matrix" values="0 0 0 0 0 0 0 0 0 0 0 0 0 0 0 0 0 0 127 0" result="hardAlpha"/>
<feOffset dy="1.33333"/>
<feGaussianBlur stdDeviation="0.666667"/>
<feComposite in2="hardAlpha" operator="out"/>
<feColorMatrix type="matrix" values="0 0 0 0 0 0 0 0 0 0 0 0 0 0 0 0 0 0 0.15 0"/>
<feBlend mode="normal" in2="BackgroundImageFix" result="effect1_dropShadow_2372_7540"/>
<feBlend mode="normal" in="SourceGraphic" in2="effect1_dropShadow_2372_7540" result="shape"/>
</filter>
<linearGradient id="paint0_linear_2372_7540" x1="30.5" y1="0.147949" x2="30.5" y2="60.1479" gradientUnits="userSpaceOnUse">
<stop stop-color="#E5E4EB"/>
<stop offset="1" stop-color="#8F8E92"/>
</linearGradient>
<linearGradient id="paint1_linear_2372_7540" x1="30.5" y1="12.4812" x2="30.5" y2="46.4812" gradientUnits="userSpaceOnUse">
<stop stop-color="#2D2D2D"/>
<stop offset="1" stop-color="#2D2C2E"/>
</linearGradient>
<linearGradient id="paint2_linear_2372_7540" x1="30.5" y1="21.4813" x2="30.5" y2="41.4813" gradientUnits="userSpaceOnUse">
<stop stop-color="#C4C3C7"/>
<stop offset="1" stop-color="#AAA9B0"/>
</linearGradient>
<clipPath id="clip0_2372_7540">
<rect x="0.5" y="0.147949" width="60" height="60" rx="13.28" fill="white"/>
</clipPath>
<clipPath id="clip1_2372_7540">
<rect width="60" height="60" fill="white" transform="translate(0.5 0.147949)"/>
</clipPath>
</defs>
</svg>
