<svg width="61" height="61" viewBox="0 0 61 61" fill="none" xmlns="http://www.w3.org/2000/svg">
<rect x="0.5" y="0.147949" width="60" height="60" rx="13.28" fill="#1E0085"/>
<mask id="path-3-outside-1_4537_16" maskUnits="userSpaceOnUse" x="6.25" y="10.1479" width="48" height="41" fill="black">
<rect fill="white" x="6.25" y="10.1479" width="48" height="41"/>
<path fill-rule="evenodd" clip-rule="evenodd" d="M36.3466 40.7185L38.6963 45.5988C39.7745 47.8381 42.4638 48.7793 44.703 47.7012C46.9422 46.623 47.8835 43.9337 46.8053 41.6945L33.8062 14.6963C32.1688 11.2956 27.33 11.3014 25.6954 14.6963L19.2951 27.9893C18.7252 27.2673 18.2058 26.4642 17.7479 25.579C16.6061 23.3716 13.891 22.5077 11.6835 23.6495C9.47606 24.7913 8.61216 27.5064 9.75396 29.7138C11.1824 32.4756 13.023 34.7828 15.1396 36.6206L12.6965 41.6946C11.6184 43.9338 12.5596 46.6231 14.7989 47.7013C17.0381 48.7794 19.7274 47.8382 20.8055 45.5989L23.0262 40.9867C25.9274 41.8665 28.9885 42.1231 32.0117 41.7348C33.4871 41.5453 34.9386 41.2053 36.3466 40.7185ZM32.3962 32.5139L30.3745 28.3151C30.0583 27.9175 29.4425 27.9178 29.1267 28.316L27.0123 32.7075C28.2864 32.9403 29.5862 32.9724 30.8652 32.8081C31.3745 32.7427 31.886 32.645 32.3962 32.5139ZM44.101 36.0773C47.4775 32.9838 50.1412 28.6999 51.5951 23.3205C52.2435 20.9213 50.8243 18.4507 48.4251 17.8023C46.0259 17.1538 43.5553 18.5731 42.9068 20.9723C42.2113 23.5458 41.1679 25.6606 39.9023 27.357L44.101 36.0773Z"/>
</mask>
<path fill-rule="evenodd" clip-rule="evenodd" d="M36.3466 40.7185L38.6963 45.5988C39.7745 47.8381 42.4638 48.7793 44.703 47.7012C46.9422 46.623 47.8835 43.9337 46.8053 41.6945L33.8062 14.6963C32.1688 11.2956 27.33 11.3014 25.6954 14.6963L19.2951 27.9893C18.7252 27.2673 18.2058 26.4642 17.7479 25.579C16.6061 23.3716 13.891 22.5077 11.6835 23.6495C9.47606 24.7913 8.61216 27.5064 9.75396 29.7138C11.1824 32.4756 13.023 34.7828 15.1396 36.6206L12.6965 41.6946C11.6184 43.9338 12.5596 46.6231 14.7989 47.7013C17.0381 48.7794 19.7274 47.8382 20.8055 45.5989L23.0262 40.9867C25.9274 41.8665 28.9885 42.1231 32.0117 41.7348C33.4871 41.5453 34.9386 41.2053 36.3466 40.7185ZM32.3962 32.5139L30.3745 28.3151C30.0583 27.9175 29.4425 27.9178 29.1267 28.316L27.0123 32.7075C28.2864 32.9403 29.5862 32.9724 30.8652 32.8081C31.3745 32.7427 31.886 32.645 32.3962 32.5139ZM44.101 36.0773C47.4775 32.9838 50.1412 28.6999 51.5951 23.3205C52.2435 20.9213 50.8243 18.4507 48.4251 17.8023C46.0259 17.1538 43.5553 18.5731 42.9068 20.9723C42.2113 23.5458 41.1679 25.6606 39.9023 27.357L44.101 36.0773Z" fill="#003CD3"/>
<path d="M38.6963 45.5988L36.8943 46.4664L36.8943 46.4664L38.6963 45.5988ZM36.3466 40.7185L38.1486 39.8509L37.3761 38.2465L35.6931 38.8283L36.3466 40.7185ZM44.703 47.7012L45.5706 49.5032V49.5032L44.703 47.7012ZM46.8053 41.6945L48.6073 40.8268L48.6073 40.8268L46.8053 41.6945ZM33.8062 14.6963L32.0042 15.564V15.564L33.8062 14.6963ZM25.6954 14.6963L27.4974 15.564V15.564L25.6954 14.6963ZM19.2951 27.9893L17.7252 29.2284L19.7084 31.7411L21.0971 28.857L19.2951 27.9893ZM17.7479 25.579L15.9715 26.4979L17.7479 25.579ZM11.6835 23.6495L12.6024 25.4259L11.6835 23.6495ZM9.75396 29.7138L7.97752 30.6327H7.97752L9.75396 29.7138ZM15.1396 36.6206L16.9416 37.4882L17.6042 36.1119L16.4508 35.1105L15.1396 36.6206ZM12.6965 41.6946L10.8945 40.827H10.8945L12.6965 41.6946ZM14.7989 47.7013L13.9312 49.5033L13.9312 49.5033L14.7989 47.7013ZM20.8055 45.5989L22.6075 46.4666L20.8055 45.5989ZM23.0262 40.9867L23.6067 39.0728L21.9674 38.5756L21.2242 40.1191L23.0262 40.9867ZM32.0117 41.7348L31.7569 39.7511L31.7569 39.7511L32.0117 41.7348ZM32.3962 32.5139L32.894 34.451L35.2563 33.8439L34.1982 31.6463L32.3962 32.5139ZM30.3745 28.3151L32.1765 27.4474L32.0792 27.2454L31.9396 27.0699L30.3745 28.3151ZM29.1267 28.316L27.5598 27.0731L27.4213 27.2476L27.3247 27.4484L29.1267 28.316ZM27.0123 32.7075L25.2103 31.8399L24.0722 34.2035L26.6528 34.675L27.0123 32.7075ZM30.8652 32.8081L30.6104 30.8244L30.6104 30.8244L30.8652 32.8081ZM51.5951 23.3205L49.6644 22.7987V22.7987L51.5951 23.3205ZM44.101 36.0773L42.299 36.9449L43.467 39.3706L45.4521 37.5519L44.101 36.0773ZM42.9068 20.9723L40.9761 20.4505V20.4505L42.9068 20.9723ZM39.9023 27.357L38.2993 26.161L37.5745 27.1325L38.1003 28.2246L39.9023 27.357ZM40.4983 44.7312L38.1486 39.8509L34.5446 41.5862L36.8943 46.4664L40.4983 44.7312ZM43.8354 45.8991C42.5913 46.4981 41.0973 45.9752 40.4983 44.7312L36.8943 46.4664C38.4517 49.7009 42.3362 51.0605 45.5706 49.5032L43.8354 45.8991ZM45.0033 42.5621C45.6023 43.8061 45.0794 45.3002 43.8354 45.8992L45.5706 49.5032C48.8051 47.9458 50.1647 44.0613 48.6073 40.8268L45.0033 42.5621ZM32.0042 15.564L45.0033 42.5621L48.6073 40.8268L35.6082 13.8287L32.0042 15.564ZM27.4974 15.564C28.4063 13.6764 31.095 13.6755 32.0042 15.564L35.6082 13.8287C33.2427 8.91566 26.2538 8.9264 23.8934 13.8287L27.4974 15.564ZM21.0971 28.857L27.4974 15.564L23.8934 13.8287L17.4931 27.1217L21.0971 28.857ZM20.865 26.7502C20.376 26.1307 19.9252 25.4352 19.5244 24.6602L15.9715 26.4979C16.4863 27.4932 17.0744 28.4039 17.7252 29.2284L20.865 26.7502ZM19.5244 24.6602C17.8751 21.4716 13.9533 20.2238 10.7647 21.873L12.6024 25.4259C13.8288 24.7916 15.3371 25.2715 15.9715 26.4979L19.5244 24.6602ZM10.7647 21.873C7.57612 23.5223 6.32826 27.4441 7.97752 30.6327L11.5304 28.795C10.8961 27.5686 11.376 26.0602 12.6024 25.4259L10.7647 21.873ZM7.97752 30.6327C9.52039 33.6156 11.5177 36.1244 13.8283 38.1307L16.4508 35.1105C14.5284 33.4412 12.8445 31.3356 11.5304 28.795L7.97752 30.6327ZM14.4985 42.5622L16.9416 37.4882L13.3376 35.753L10.8945 40.827L14.4985 42.5622ZM15.6665 45.8993C14.4225 45.3003 13.8996 43.8062 14.4985 42.5622L10.8945 40.827C9.33719 44.0614 10.6968 47.9459 13.9312 49.5033L15.6665 45.8993ZM19.0035 44.7313C18.4046 45.9753 16.9105 46.4982 15.6665 45.8993L13.9312 49.5033C17.1657 51.0606 21.0502 49.701 22.6075 46.4666L19.0035 44.7313ZM21.2242 40.1191L19.0035 44.7313L22.6075 46.4666L24.8283 41.8543L21.2242 40.1191ZM22.4458 42.9006C25.6177 43.8626 28.9634 44.1427 32.2665 43.7185L31.7569 39.7511C29.0135 40.1034 26.237 39.8705 23.6067 39.0728L22.4458 42.9006ZM32.2665 43.7185C33.8774 43.5116 35.4626 43.1403 37 42.6088L35.6931 38.8283C34.4147 39.2703 33.0967 39.579 31.7569 39.7511L32.2665 43.7185ZM34.1982 31.6463L32.1765 27.4474L28.5725 29.1827L30.5942 33.3816L34.1982 31.6463ZM31.9396 27.0699C30.8221 25.6652 28.6758 25.6662 27.5598 27.0731L30.6936 29.5589C30.2093 30.1695 29.2944 30.1698 28.8094 29.5602L31.9396 27.0699ZM27.3247 27.4484L25.2103 31.8399L28.8143 33.5752L30.9287 29.1836L27.3247 27.4484ZM30.6104 30.8244C29.5338 30.9627 28.4412 30.9355 27.3717 30.7401L26.6528 34.675C28.1316 34.9451 29.6386 34.9821 31.12 34.7918L30.6104 30.8244ZM31.8984 30.5769C31.4685 30.6873 31.038 30.7695 30.6104 30.8244L31.1199 34.7918C31.7109 34.7159 32.3036 34.6027 32.894 34.451L31.8984 30.5769ZM49.6644 22.7987C48.3028 27.8364 45.8286 31.782 42.75 34.6026L45.4521 37.5519C49.1264 34.1856 51.9796 29.5634 53.5258 23.8423L49.6644 22.7987ZM47.9033 19.733C49.2361 20.0932 50.0246 21.4658 49.6644 22.7987L53.5258 23.8423C54.4625 20.3768 52.4124 16.8081 48.9469 15.8715L47.9033 19.733ZM44.8376 21.4941C45.1978 20.1612 46.5704 19.3727 47.9033 19.733L48.9469 15.8715C45.4814 14.9349 41.9127 16.985 40.9761 20.4505L44.8376 21.4941ZM41.5054 28.5529C42.9344 26.6375 44.082 24.2896 44.8376 21.4941L40.9761 20.4505C40.3406 22.802 39.4014 24.6838 38.2993 26.161L41.5054 28.5529ZM45.903 35.2096L41.7043 26.4893L38.1003 28.2246L42.299 36.9449L45.903 35.2096Z" fill="white" mask="url(#path-3-outside-1_4537_16)"/>
<path fill-rule="evenodd" clip-rule="evenodd" d="M38.6963 45.5988L29.7508 27.0197L25.7508 35.3274V34.6464H16.0898L25.6954 14.6963C27.33 11.3014 32.1688 11.2956 33.8062 14.6963L46.8053 41.6945C47.8835 43.9337 46.9422 46.623 44.703 47.7012C42.4638 48.7793 39.7745 47.8381 38.6963 45.5988Z" fill="#FF5475"/>
<path fill-rule="evenodd" clip-rule="evenodd" d="M16.751 33.2737L12.6965 41.6946C11.6184 43.9338 12.5596 46.6231 14.7989 47.7013C17.0381 48.7794 19.7274 47.8382 20.8055 45.5989L26.5604 33.6465H16.751V33.2737Z" fill="#1E0085"/>
<path fill-rule="evenodd" clip-rule="evenodd" d="M29.0487 28.4341L26.9388 32.3022C26.8892 32.3932 26.751 32.3579 26.751 32.2543V25.2465C26.751 25.1913 26.7957 25.1465 26.851 25.1465H32.651C32.7062 25.1465 32.751 25.1913 32.751 25.2465V32.2543C32.751 32.3579 32.6128 32.3932 32.5632 32.3022L30.4533 28.4341C30.1501 27.8782 29.3519 27.8782 29.0487 28.4341Z" fill="#FF5475"/>
<path d="M26.9388 32.3022L26.9827 32.3261H26.9827L26.9388 32.3022ZM29.0487 28.4341L29.0048 28.4101L29.0487 28.4341ZM32.5632 32.3022L32.6071 32.2783L32.5632 32.3022ZM30.4533 28.4341L30.4972 28.4101L30.4533 28.4341ZM26.9827 32.3261L29.0926 28.458L29.0048 28.4101L26.8949 32.2783L26.9827 32.3261ZM26.701 32.2543C26.701 32.4097 26.9082 32.4626 26.9827 32.3261L26.8949 32.2783C26.8701 32.3237 26.801 32.3061 26.801 32.2543H26.701ZM26.701 25.2465V32.2543H26.801V25.2465H26.701ZM26.851 25.0965C26.7681 25.0965 26.701 25.1636 26.701 25.2465H26.801C26.801 25.2189 26.8234 25.1965 26.851 25.1965V25.0965ZM32.651 25.0965H26.851V25.1965H32.651V25.0965ZM32.801 25.2465C32.801 25.1636 32.7338 25.0965 32.651 25.0965V25.1965C32.6786 25.1965 32.701 25.2189 32.701 25.2465H32.801ZM32.801 32.2543V25.2465H32.701V32.2543H32.801ZM32.5193 32.3261C32.5937 32.4626 32.801 32.4097 32.801 32.2543H32.701C32.701 32.3061 32.6319 32.3237 32.6071 32.2783L32.5193 32.3261ZM30.4094 28.458L32.5193 32.3261L32.6071 32.2783L30.4972 28.4101L30.4094 28.458ZM29.0926 28.458C29.3768 27.9369 30.1251 27.9369 30.4094 28.458L30.4972 28.4101C30.175 27.8195 29.3269 27.8195 29.0048 28.4101L29.0926 28.458Z" fill="#FF5475"/>
<path fill-rule="evenodd" clip-rule="evenodd" d="M44.101 36.0773C47.4775 32.9838 50.1412 28.6999 51.5951 23.3205C52.2435 20.9213 50.8243 18.4507 48.4251 17.8023C46.0259 17.1538 43.5553 18.5731 42.9068 20.9723C42.2113 23.5458 41.1679 25.6606 39.9023 27.357L44.101 36.0773Z" fill="#FF8790"/>
<path fill-rule="evenodd" clip-rule="evenodd" d="M32.3964 32.5139C31.8861 32.645 31.3745 32.7427 30.8652 32.8081C25.8975 33.4462 20.6151 31.1222 17.7479 25.579C16.6061 23.3716 13.891 22.5077 11.6835 23.6495C9.47606 24.7913 8.61216 27.5064 9.75396 29.7138C14.3868 38.6707 23.3544 42.8467 32.0117 41.7348C33.4871 41.5453 34.9387 41.2052 36.3467 40.7185L32.3964 32.5139Z" fill="#003CD3"/>
</svg>
