<svg width="61" height="61" viewBox="0 0 61 61" fill="none" xmlns="http://www.w3.org/2000/svg">
<g clip-path="url(#clip0_2372_7538)">
<rect x="0.833328" y="0.147949" width="60" height="60" fill="url(#paint0_linear_2372_7538)"/>
<path d="M52.7474 28.8589C52.7474 38.8906 42.9361 47.0229 30.8333 47.0229C29.0002 47.0229 27.2197 46.8364 25.5179 46.4849C25.0038 46.3788 24.4677 46.3648 24.0036 46.6102C22.4837 47.4139 19.9823 49.4489 16.7251 49.593C16.5781 49.5995 16.4958 49.4306 16.5863 49.3145C18.5113 46.8441 19.7658 44.5608 18.9388 44.117C12.9091 40.881 8.91927 35.2561 8.91927 28.8589C8.91927 18.8272 18.7305 10.6948 30.8333 10.6948C42.9361 10.6948 52.7474 18.8272 52.7474 28.8589Z" fill="white"/>
</g>
<defs>
<linearGradient id="paint0_linear_2372_7538" x1="30.8333" y1="0.147949" x2="30.8333" y2="60.1479" gradientUnits="userSpaceOnUse">
<stop stop-color="#5CF777"/>
<stop offset="1" stop-color="#0EBC29"/>
</linearGradient>
<clipPath id="clip0_2372_7538">
<rect x="0.833328" y="0.147949" width="60" height="60" rx="13.28" fill="white"/>
</clipPath>
</defs>
</svg>
