<svg width="61" height="61" viewBox="0 0 61 61" fill="none" xmlns="http://www.w3.org/2000/svg">
<rect x="0.166656" y="0.147949" width="60" height="60" rx="13.3594" fill="url(#paint0_linear_4537_164)"/>
<path d="M11.5717 21.1245C9.09596 14.4656 13.3641 11.5123 16.4476 10.6541C16.9706 10.5086 17.5117 10.7442 17.8221 11.1896L23.4339 19.2414C23.7984 19.7644 23.7589 20.4628 23.3826 20.9774C22.0992 22.7327 21.6359 24.2222 21.4697 25.3816C21.3321 26.3412 21.6744 27.2945 22.2505 28.0742C26.6625 34.0445 31.4355 38.5341 33.7787 38.644C35.496 38.7246 37.5927 37.3937 38.7362 36.5534C39.2468 36.1781 39.9451 36.1339 40.4724 36.4854L48.6852 41.9606C49.1361 42.2612 49.3812 42.7998 49.266 43.3294C47.7672 50.2223 41.2868 49.49 38.1147 48.1948C23.2319 41.2808 14.9701 30.2651 11.5717 21.1245Z" fill="#FEFEFE"/>
<defs>
<linearGradient id="paint0_linear_4537_164" x1="30.1667" y1="0.147949" x2="30.1667" y2="60.1479" gradientUnits="userSpaceOnUse">
<stop stop-color="#5CF777"/>
<stop offset="1" stop-color="#0EBC29"/>
</linearGradient>
</defs>
</svg>
