<svg width="16" height="12" viewBox="0 0 16 12" fill="none" xmlns="http://www.w3.org/2000/svg">
<path fill-rule="evenodd" clip-rule="evenodd" d="M15.8724 3.69883L15.8658 3.46398C13.8063 1.62119 11.1608 0.60498 8.38076 0.60498C5.59286 0.60498 2.94047 1.62697 0.878771 3.47918L0.872406 3.71381L2.09164 4.93515L2.31226 4.94227C3.98993 3.46525 6.13181 2.65244 8.38076 2.65244C10.6221 2.65244 12.7572 3.45973 14.4327 4.9277L14.653 4.92033L15.8724 3.69883ZM13.1934 6.13434L13.2036 6.37227L11.9806 7.59737L11.7659 7.60942C10.8051 6.84151 9.61977 6.42407 8.38076 6.42407C7.13423 6.42407 5.94213 6.84662 4.97859 7.62312L4.76334 7.61147L3.54078 6.3868L3.55056 6.14918C4.89965 5.00389 6.59921 4.37662 8.38076 4.37662C10.1544 4.37662 11.8469 4.9983 13.1934 6.13434ZM8.47903 11.105H8.25083L6.22212 9.07277C6.15136 9.00188 6.1614 8.88424 6.24315 8.82642C6.86731 8.38497 7.60925 8.14825 8.38076 8.14825C9.14413 8.14825 9.87863 8.37998 10.4989 8.81276C10.5814 8.87029 10.5918 8.98852 10.5208 9.05969L8.47903 11.105Z" fill="white"/>
</svg>
